<?xml version="1.0" encoding="utf-8"?>
<!-- Generator: Adobe Illustrator 19.1.0, SVG Export Plug-In . SVG Version: 6.00 Build 0)  -->
<svg version="1.1" id="Layer_1" xmlns="http://www.w3.org/2000/svg" xmlns:xlink="http://www.w3.org/1999/xlink" x="0px" y="0px"
	 width="32px" height="32px" viewBox="0 0 32 32" enable-background="new 0 0 32 32" xml:space="preserve">
<path d="M1.1,21.5l0.5-2.2L1.1,17c0-0.1-0.1-0.1-0.3-0.1c-0.2,0-0.3,0.1-0.3,0.1L0,19.3l0.5,2.2c0,0.1,0.1,0.1,0.3,0.1
	C0.9,21.7,1.1,21.6,1.1,21.5z M4.4,22.8l0.4-3.5L4.4,14c0-0.1-0.2-0.2-0.4-0.2c-0.2,0-0.4,0.1-0.4,0.2l-0.4,5.4l0.4,3.5
	C3.6,22.9,3.8,23,4,23C4.2,23,4.3,22.9,4.4,22.8z M7.6,22.7L8,19.3l-0.4-7.1c0-0.2-0.2-0.3-0.4-0.3c-0.2,0-0.4,0.1-0.5,0.3l-0.3,7.1
	l0.3,3.4c0,0.2,0.2,0.3,0.5,0.3C7.4,23,7.6,22.9,7.6,22.7z M10.9,22.7l0.3-3.4l-0.3-7.2c0-0.2-0.2-0.4-0.5-0.4
	c-0.3,0-0.5,0.2-0.5,0.4l-0.3,7.2l0.3,3.4c0,0.2,0.2,0.4,0.5,0.4C10.7,23,10.9,22.9,10.9,22.7z M14.2,22.6l0.2-3.3l-0.2-8.2
	c0-0.2-0.3-0.4-0.6-0.4c-0.3,0-0.6,0.2-0.6,0.4l-0.2,8.2c0,0,0.2,3.3,0.2,3.3c0,0.2,0.3,0.4,0.6,0.4C13.9,23,14.2,22.9,14.2,22.6z
	 M16.4,23c0,0,11.4,0,11.4,0c2.3,0,4.1-1.8,4.1-4c0-2.2-1.8-4-4.1-4c-0.6,0-1.1,0.1-1.6,0.3C26,11.8,22.8,9,19,9
	c-0.9,0-1.8,0.2-2.6,0.5C16.1,9.6,16,9.7,16,9.9v12.7C16,22.8,16.2,23,16.4,23z"/>
</svg>
